<?xml version="1.0" encoding="utf-8"?>
<!-- Generator: Adobe Illustrator 22.0.1, SVG Export Plug-In . SVG Version: 6.00 Build 0)  -->
<svg version="1.1" id="Layer_1" xmlns="http://www.w3.org/2000/svg" xmlns:xlink="http://www.w3.org/1999/xlink" x="0px" y="0px"
	 viewBox="0 0 238 70" style="enable-background:new 0 0 238 70;" xml:space="preserve">
<style type="text/css">
	.st0{fill:#5657AE;}
	.st1{fill:#FF7B63;}
	.st2{filter:url(#Adobe_OpacityMaskFilter);}
	.st3{fill:#FFFFFF;}
	.st4{mask:url(#mask-2_2_);}
	.st5{filter:url(#Adobe_OpacityMaskFilter_1_);}
	.st6{mask:url(#mask-2_3_);}
	.st7{clip-path:url(#SVGID_2_);}
	.st8{clip-path:url(#SVGID_4_);}
	.st9{clip-path:url(#SVGID_10_);}
	.st10{clip-path:url(#SVGID_11_);}
	.st11{clip-path:url(#SVGID_12_);}
	.st12{clip-path:url(#SVGID_13_);}
	.st13{clip-path:url(#SVGID_14_);}
	.st14{clip-path:url(#SVGID_16_);}
	.st15{clip-path:url(#SVGID_18_);enable-background:new    ;}
	.st16{clip-path:url(#SVGID_20_);}
</style>
<title>Logo - Horizontal</title>
<desc>Created with Sketch.</desc>
<g id="Logo---Horizontal">
	<g id="Group" transform="translate(-29.000000, -12.000000)">
		<g id="Group-Copy" transform="translate(108.000000, 21.000000)">
			<g id="Logotype-Copy-16">
				<path id="Isaac." class="st0" d="M0.2,50V0.9h7.4V50H0.2z M18.4,39.3c2.9,3,6.5,4.5,11.1,4.5c2,0,3.7-0.4,5-1.2s1.9-1.9,1.9-3.3
					c0-1.3-0.4-2.1-1.1-2.6c-0.8-0.5-1.8-0.8-3.1-0.8l-6.2-0.5c-2.9-0.3-5.3-1.3-7.2-3c-1.9-1.7-2.9-4-2.9-7c0-3.6,1.3-6.3,3.8-8.1
					c2.4-1.8,5.5-2.7,9.2-2.7c1.6,0,3.1,0.1,4.3,0.3c1.3,0.2,2.5,0.5,3.6,0.9c2.2,0.9,4.1,2.1,5.8,3.5l-4.3,5.1
					c-1.3-1-2.8-1.8-4.3-2.4c-1.5-0.6-3.2-0.8-5.1-0.8c-2.2,0-3.7,0.4-4.6,1.2c-0.9,0.8-1.4,1.8-1.4,3c0,0.8,0.3,1.5,1,2.1
					c0.7,0.7,1.9,1.1,3.6,1.2l5.8,0.4c3.6,0.3,6.3,1.4,7.9,3.3c1.5,1.9,2.3,4.3,2.3,7.2c0,3.4-1.4,6-4.1,7.9
					c-2.7,1.9-6.1,2.9-10.3,2.9c-5.7,0-10.8-2.1-15.4-6.3L18.4,39.3z M68.8,50v-3.1h-0.1c-0.7,1.2-1.7,2.1-3,2.6
					c-1.3,0.6-3.2,0.9-5.6,0.9c-3.9,0-6.9-1.1-9-3.1c-2.2-2-3.3-4.5-3.3-7.6c0-2.9,1-5.4,2.9-7.3c1.9-2,4.8-3,8.5-3h9.7v-3.7
					c0-3.1-2.3-4.6-7.2-4.5c-1.8,0-3.1,0.2-4.1,0.5c-1.1,0.4-1.9,1.1-2.5,2.2l-5.5-4.2c2.7-3.5,6.6-5.2,11.8-5.1
					c4.4,0,7.9,0.8,10.5,2.5c2.6,1.8,4,4.8,4,9V50H68.8z M68.8,37.7v-2.5h-8.4c-4.1,0.1-6.1,1.5-6.1,4.2c0,1.2,0.5,2.2,1.6,3
					c1,0.9,2.7,1.4,5,1.4c2.9,0,5-0.3,6.2-1C68.3,42,68.8,40.3,68.8,37.7z M103.3,50v-3.1h-0.1c-0.7,1.2-1.7,2.1-3,2.6
					c-1.3,0.6-3.2,0.9-5.6,0.9c-3.9,0-6.9-1.1-9-3.1c-2.2-2-3.3-4.5-3.3-7.6c0-2.9,1-5.4,2.9-7.3c1.9-2,4.8-3,8.5-3h9.7v-3.7
					c0-3.1-2.3-4.6-7.2-4.5c-1.8,0-3.1,0.2-4.1,0.5c-1.1,0.4-1.9,1.1-2.5,2.2L84,19.7c2.7-3.5,6.6-5.2,11.8-5.1
					c4.4,0,7.9,0.8,10.5,2.5c2.6,1.8,4,4.8,4,9V50H103.3z M103.3,37.7v-2.5h-8.4c-4.1,0.1-6.1,1.5-6.1,4.2c0,1.2,0.5,2.2,1.6,3
					c1,0.9,2.7,1.4,5,1.4c2.9,0,5-0.3,6.2-1C102.8,42,103.3,40.3,103.3,37.7z M140,39.7l5.2,4.6c-1.5,1.8-3.3,3.2-5.4,4.3
					c-2.1,1.1-4.5,1.7-7.2,1.8c-4.1,0-7.8-1.4-10.9-4.2c-3.2-2.8-4.9-7.4-5-13.6c0.1-6.4,1.8-11,5-13.8c3.1-2.8,6.7-4.2,10.9-4.1
					c2.7,0,5.1,0.6,7.2,1.7c2.1,1.1,3.9,2.6,5.4,4.4l-5.2,4.6c-1.8-2.4-4.1-3.6-7.1-3.7c-6-0.1-9,3.5-9.1,10.9
					c0.1,7.3,3.1,10.9,9.1,10.8C135.9,43.3,138.2,42.1,140,39.7z"/>
				<polygon id="Path" class="st1" points="158.8,46.5 153.8,51.5 148.8,46.5 153.8,41.5 				"/>
			</g>
		</g>
		<g id="noun_1386651_cc-copy-3">
			<defs>
				<filter id="Adobe_OpacityMaskFilter" filterUnits="userSpaceOnUse" x="43" y="109.8" width="8.8" height="9.1">
					<feColorMatrix  type="matrix" values="1 0 0 0 0  0 1 0 0 0  0 0 1 0 0  0 0 0 1 0"/>
				</filter>
			</defs>
			<mask maskUnits="userSpaceOnUse" x="43" y="109.8" width="8.8" height="9.1" id="mask-2_2_">
				<g class="st2">
					<path id="path-1_3_" class="st3" d="M41.5,17.3l36,35.9c3.5,3.5,3.5,9.2,0,12.7c-1.2,1.2-2.6,2-4.3,2.4L24.6,80.1
						c-4.8,1.2-9.7-1.8-10.9-6.6c-0.4-1.5-0.3-3,0.1-4.4l12.7-47.7c1.3-4.8,6.2-7.7,11-6.4C39,15.4,40.4,16.2,41.5,17.3z"/>
				</g>
			</mask>
			<g id="Group-17-Copy-2" class="st4">
				<g id="Shape_1_" transform="translate(43.000000, 72.000000)">
					<path class="st3" d="M8.8,40.1C5.2,41.9,4,43.7,4,46.8H0c0-3.6,1.4-6.4,4.1-8.5c0.2-0.2,0.5-0.4,0.7-0.5
						C6,38.7,7.2,39.4,8.8,40.1z"/>
				</g>
			</g>
			<defs>
				<filter id="Adobe_OpacityMaskFilter_1_" filterUnits="userSpaceOnUse" x="43" y="-20" width="18.3" height="11.4">
					<feColorMatrix  type="matrix" values="1 0 0 0 0  0 1 0 0 0  0 0 1 0 0  0 0 0 1 0"/>
				</filter>
			</defs>
			<mask maskUnits="userSpaceOnUse" x="43" y="-20" width="18.3" height="11.4" id="mask-2_3_">
				<g class="st5">
					<path id="path-1_4_" class="st3" d="M41.5,17.3l36,35.9c3.5,3.5,3.5,9.2,0,12.7c-1.2,1.2-2.6,2-4.3,2.4L24.6,80.1
						c-4.8,1.2-9.7-1.8-10.9-6.6c-0.4-1.5-0.3-3,0.1-4.4l12.7-47.7c1.3-4.8,6.2-7.7,11-6.4C39,15.4,40.4,16.2,41.5,17.3z"/>
				</g>
			</mask>
			<g id="Group-17-Copy" class="st6">
				<g id="Shape_2_" transform="translate(43.000000, -20.000000)">
					<path class="st3" d="M18.3,9.4c-1.1-0.6-2.3-1.2-3.7-1.8c-0.7-0.3-3.2-1.4-3.5-1.5C5.8,3.8,4,2.3,4,0H0c0,4.4,2.8,6.7,9.6,9.6
						c0.3,0.1,2.7,1.2,3.5,1.5c0.2,0.1,0.5,0.2,0.7,0.3c1-0.4,2.6-1.1,2.8-1.2C17.2,9.9,17.8,9.7,18.3,9.4z"/>
				</g>
			</g>
		</g>
	</g>
	<g>
		<title>Logo - Icon Only</title>
		<desc>Created with Sketch.</desc>
		<g>
			<g>
				<g>
					<g>
						<defs>
							<path id="SVGID_1_" d="M0,63V7c0-3.9,3.1-7,7-7c1.3,0,2.5,0.4,3.6,1l47,28.8c3.2,2,4.3,6.3,2.3,9.6c-0.6,1-1.5,1.8-2.5,2.4
								l-47,27.3c-3.3,1.9-7.6,0.8-9.5-2.5C0.3,65.4,0,64.3,0,63z"/>
						</defs>
						<clipPath id="SVGID_2_">
							<use xlink:href="#SVGID_1_"  style="overflow:visible;"/>
						</clipPath>
						<g class="st7">
							<g>
								<g>
									<defs>
										<rect id="SVGID_3_" x="-28.4" y="0" width="123.6" height="113.6"/>
									</defs>
									<clipPath id="SVGID_4_">
										<use xlink:href="#SVGID_3_"  style="overflow:visible;"/>
									</clipPath>
									<g class="st8">
										<g>
											<g>
												<g id="Layer_1_1_">
													<defs>
														<rect id="SVGID_5_" x="-36.9" y="-17.8" width="106.6" height="106.6"/>
													</defs>
													<defs>
														<rect id="SVGID_6_" x="-36.9" y="-17.8" width="106.6" height="106.6"/>
													</defs>
													<defs>
														<rect id="SVGID_7_" x="-36.9" y="-17.8" width="106.6" height="106.6"/>
													</defs>
													<defs>
														<rect id="SVGID_8_" x="-36.9" y="-17.8" width="106.6" height="106.6"/>
													</defs>
													<defs>
														<rect id="SVGID_9_" x="-36.9" y="-17.8" width="106.6" height="106.6"/>
													</defs>
													<clipPath id="SVGID_10_">
														<use xlink:href="#SVGID_5_"  style="overflow:visible;"/>
													</clipPath>
													<clipPath id="SVGID_11_" class="st9">
														<use xlink:href="#SVGID_6_"  style="overflow:visible;"/>
													</clipPath>
													<clipPath id="SVGID_12_" class="st10">
														<use xlink:href="#SVGID_7_"  style="overflow:visible;"/>
													</clipPath>
													<clipPath id="SVGID_13_" class="st11">
														<use xlink:href="#SVGID_8_"  style="overflow:visible;"/>
													</clipPath>
													<clipPath id="SVGID_14_" class="st12">
														<use xlink:href="#SVGID_9_"  style="overflow:visible;"/>
													</clipPath>
													<g class="st13">
														
															<rect x="-20.6" y="-2.2" transform="matrix(0.7071 -0.7071 0.7071 0.7071 -20.1795 22.0353)" class="st0" width="74.2" height="75.2"/>
													</g>
													<g id="Logo---Icon-Only" class="st13">
														<g>
															<g>
																<defs>
																	<path id="SVGID_15_" d="M22.5,7.7c-3.4,1.7-4.6,4.7-4.6,6.6h-3.9c0-3.6,1.3-6.3,3.9-8.3c0.2-0.2,0.5-0.4,0.7-0.5
																		C19.9,6.3,21,7,22.5,7.7z M22.5,53.4c-3.5,1.8-4.6,3.5-4.6,6.6H14c0-3.6,1.4-6.3,4-8.3c0.2-0.2,0.5-0.4,0.7-0.5
																		C19.9,52,21,52.7,22.5,53.4z M18.8,68.8c-0.2-0.2-0.5-0.3-0.7-0.5c-2.6-2-4.1-4.7-4.1-8.3h3.9
																		c0,3.1,1.2,4.8,4.7,6.6C21,67.3,19.9,68,18.8,68.8z M35.4,26.2c3.6,2.9,5.4,6.2,5.4,11c0,4.1-1.5,7.2-4.2,9.5
																		c-2,1.7-4.2,2.8-8.4,4.3c-0.2,0.1-0.4,0.2-0.7,0.2c-1.9-0.8-3.6-1.5-4.9-2.2c0.9-0.4,2-0.8,3.3-1.3
																		c0.4-0.2,0.6-0.2,0.8-0.3c7.6-2.9,10.2-5,10.2-10.3c0-4-1.6-6.7-5.4-9.1h0.1C33.1,27.4,34.3,26.8,35.4,26.2z
																		 M31.8,23.8c-0.5,0.2-1.1,0.5-1.7,0.8c-0.2,0.1-1.7,0.8-2.7,1.2c-0.2-0.1-0.5-0.2-0.7-0.3
																		c-0.7-0.3-3.1-1.4-3.3-1.5c-6.5-2.9-9.3-5.2-9.3-9.6h3.9c0,2.2,1.8,3.8,7,6.1c0.2,0.1,2.6,1.2,3.4,1.5
																		C29.5,22.6,30.7,23.3,31.8,23.8z"/>
																</defs>
																<clipPath id="SVGID_16_">
																	<use xlink:href="#SVGID_15_"  style="overflow:visible;"/>
																</clipPath>
																<g class="st14">
																	<rect x="10.2" y="1.3" class="st3" width="34.5" height="65.1"/>
																</g>
															</g>
															<g>
																<g>
																	<defs>
																		<rect id="SVGID_17_" x="-36.9" y="-17.8" width="106.6" height="106.6"/>
																	</defs>
																	<clipPath id="SVGID_18_">
																		<use xlink:href="#SVGID_17_"  style="overflow:visible;"/>
																	</clipPath>
																	<g class="st15">
																		<g>
																			<g>
																				<defs>
																					<path id="SVGID_19_" d="M40.8,14.5c0,4.3-2.7,6.6-9.3,9.5c-0.2,0.2-2.6,1.2-3.3,1.5
																						c-7.3,3.3-10.4,6.3-10.4,11.7c0,5.3,2.5,7.4,10.2,10.3c0.2,0.1,0.4,0.2,0.8,0.3c4.1,1.5,6,2.4,7.9,3.9
																						c2.6,2,4,4.7,4,8.3h-3.9c0-4.2-2.2-5.9-9.4-8.6c-0.4-0.2-0.6-0.2-0.8-0.3c-4.2-1.5-6.4-2.6-8.4-4.3
																						c-2.8-2.3-4.2-5.4-4.2-9.5c0-7.4,4-11.4,12.6-15.2c0.7-0.3,3.1-1.4,3.4-1.5c5.2-2.3,7-3.8,7-6
																						C36.9,14.5,40.8,14.5,40.8,14.5z"/>
																				</defs>
																				<clipPath id="SVGID_20_">
																					<use xlink:href="#SVGID_19_"  style="overflow:visible;"/>
																				</clipPath>
																				<g class="st16">
																					<rect x="10.2" y="10.7" class="st1" width="34.5" height="53.2"/>
																				</g>
																			</g>
																		</g>
																	</g>
																</g>
															</g>
														</g>
													</g>
												</g>
											</g>
										</g>
									</g>
								</g>
							</g>
						</g>
					</g>
				</g>
			</g>
		</g>
	</g>
</g>
</svg>
